HIERARCHY
ROOT mixamorig:Hips
{
	OFFSET -0.000008 104.274872 1.554316
	CHANNELS 6 Xposition Yposition Zposition Xrotation Yrotation Zrotation
	JOINT mixamorig:Spine
	{
		OFFSET -0.000005 10.181595 0.131519
		CHANNELS 6 Xposition Yposition Zposition Xrotation Yrotation Zrotation
		JOINT mixamorig:Spine1
		{
			OFFSET -0.000000 9.893959 -1.470707
			CHANNELS 6 Xposition Yposition Zposition Xrotation Yrotation Zrotation
			JOINT mixamorig:Spine2
			{
				OFFSET -0.000000 9.220757 -1.370641
				CHANNELS 6 Xposition Yposition Zposition Xrotation Yrotation Zrotation
				JOINT mixamorig:Neck
				{
					OFFSET 0.000001 16.740417 -2.049036
					CHANNELS 6 Xposition Yposition Zposition Xrotation Yrotation Zrotation
					JOINT mixamorig:Head
					{
						OFFSET 0.000000 9.617874 1.685006
						CHANNELS 6 Xposition Yposition Zposition Xrotation Yrotation Zrotation
						JOINT mixamorig:HeadTop_End
						{
							OFFSET 0.000002 22.037354 7.501101
							CHANNELS 6 Xposition Yposition Zposition Xrotation Yrotation Zrotation
							End Site
							{
								OFFSET 0.000168 2310.654297 -282.823242
							}
						}
					}
				}
				JOINT mixamorig:RightShoulder
				{
					OFFSET -4.569970 11.014908 -2.160885
					CHANNELS 6 Xposition Yposition Zposition Xrotation Yrotation Zrotation
					JOINT mixamorig:RightArm
					{
						OFFSET -10.592851 -0.524811 -2.232101
						CHANNELS 6 Xposition Yposition Zposition Xrotation Yrotation Zrotation
						JOINT mixamorig:RightForeArm
						{
							OFFSET -27.841511 0.000031 -0.000004
							CHANNELS 6 Xposition Yposition Zposition Xrotation Yrotation Zrotation
							JOINT mixamorig:RightHand
							{
								OFFSET -28.328831 -0.000015 0.000015
								CHANNELS 6 Xposition Yposition Zposition Xrotation Yrotation Zrotation
								JOINT mixamorig:RightHandThumb1
								{
									OFFSET -2.464806 -1.573990 2.681852
									CHANNELS 6 Xposition Yposition Zposition Xrotation Yrotation Zrotation
									JOINT mixamorig:RightHandThumb2
									{
										OFFSET -3.215179 -1.872803 1.924282
										CHANNELS 6 Xposition Yposition Zposition Xrotation Yrotation Zrotation
										JOINT mixamorig:RightHandThumb3
										{
											OFFSET -2.654831 -1.527969 1.512609
											CHANNELS 6 Xposition Yposition Zposition Xrotation Yrotation Zrotation
											JOINT mixamorig:RightHandThumb4
											{
												OFFSET -2.018814 -1.152008 1.108052
												CHANNELS 6 Xposition Yposition Zposition Xrotation Yrotation Zrotation
												End Site
												{
													OFFSET -188.809540 -114.533607 132.431396
												}
											}
										}
									}
								}
								JOINT mixamorig:RightHandIndex1
								{
									OFFSET -9.108284 -0.517868 2.259835
									CHANNELS 6 Xposition Yposition Zposition Xrotation Yrotation Zrotation
									JOINT mixamorig:RightHandIndex2
									{
										OFFSET -3.699989 0.000000 0.001215
										CHANNELS 6 Xposition Yposition Zposition Xrotation Yrotation Zrotation
										JOINT mixamorig:RightHandIndex3
										{
											OFFSET -2.850006 0.000031 -0.000522
											CHANNELS 6 Xposition Yposition Zposition Xrotation Yrotation Zrotation
											JOINT mixamorig:RightHandIndex4
											{
												OFFSET -2.772186 -0.000015 -0.000020
												CHANNELS 6 Xposition Yposition Zposition Xrotation Yrotation Zrotation
												End Site
												{
													OFFSET -277.218445 0.000000 -0.050231
												}
											}
										}
									}
								}
								JOINT mixamorig:RightHandMiddle1
								{
									OFFSET -9.532516 -0.000031 -0.000023
									CHANNELS 6 Xposition Yposition Zposition Xrotation Yrotation Zrotation
									JOINT mixamorig:RightHandMiddle2
									{
										OFFSET -3.700005 -0.000015 0.003713
										CHANNELS 6 Xposition Yposition Zposition Xrotation Yrotation Zrotation
										JOINT mixamorig:RightHandMiddle3
										{
											OFFSET -2.949974 0.000015 -0.002054
											CHANNELS 6 Xposition Yposition Zposition Xrotation Yrotation Zrotation
											JOINT mixamorig:RightHandMiddle4
											{
												OFFSET -2.946640 0.000000 -0.000156
												CHANNELS 6 Xposition Yposition Zposition Xrotation Yrotation Zrotation
												End Site
												{
													OFFSET -294.664337 0.000000 -0.113670
												}
											}
										}
									}
								}
								JOINT mixamorig:RightHandRing1
								{
									OFFSET -9.103600 -0.043076 -1.865134
									CHANNELS 6 Xposition Yposition Zposition Xrotation Yrotation Zrotation
									JOINT mixamorig:RightHandRing2
									{
										OFFSET -3.379288 0.000000 -0.001055
										CHANNELS 6 Xposition Yposition Zposition Xrotation Yrotation Zrotation
										JOINT mixamorig:RightHandRing3
										{
											OFFSET -2.889687 -0.000015 0.000379
											CHANNELS 6 Xposition Yposition Zposition Xrotation Yrotation Zrotation
											JOINT mixamorig:RightHandRing4
											{
												OFFSET -2.638809 -0.000015 0.000941
												CHANNELS 6 Xposition Yposition Zposition Xrotation Yrotation Zrotation
												End Site
												{
													OFFSET -263.880371 0.000000 0.516020
												}
											}
										}
									}
								}
								JOINT mixamorig:RightHandPinky1
								{
									OFFSET -8.076683 -0.486710 -3.806280
									CHANNELS 6 Xposition Yposition Zposition Xrotation Yrotation Zrotation
									JOINT mixamorig:RightHandPinky2
									{
										OFFSET -3.600014 -0.000015 -0.003747
										CHANNELS 6 Xposition Yposition Zposition Xrotation Yrotation Zrotation
										JOINT mixamorig:RightHandPinky3
										{
											OFFSET -2.099983 0.000000 -0.005739
											CHANNELS 6 Xposition Yposition Zposition Xrotation Yrotation Zrotation
											JOINT mixamorig:RightHandPinky4
											{
												OFFSET -2.115768 -0.000031 -0.003680
												CHANNELS 6 Xposition Yposition Zposition Xrotation Yrotation Zrotation
												End Site
												{
													OFFSET -211.577087 0.000000 -0.350686
												}
											}
										}
									}
								}
							}
						}
					}
				}
				JOINT mixamorig:LeftShoulder
				{
					OFFSET 4.570447 11.014725 -2.160855
					CHANNELS 6 Xposition Yposition Zposition Xrotation Yrotation Zrotation
					JOINT mixamorig:LeftArm
					{
						OFFSET 10.592371 -0.524597 -2.232119
						CHANNELS 6 Xposition Yposition Zposition Xrotation Yrotation Zrotation
						JOINT mixamorig:LeftForeArm
						{
							OFFSET 27.841532 -0.000031 0.000026
							CHANNELS 6 Xposition Yposition Zposition Xrotation Yrotation Zrotation
							JOINT mixamorig:LeftHand
							{
								OFFSET 28.328846 -0.000061 0.000022
								CHANNELS 6 Xposition Yposition Zposition Xrotation Yrotation Zrotation
								JOINT mixamorig:LeftHandThumb1
								{
									OFFSET 2.466141 -1.576172 2.681732
									CHANNELS 6 Xposition Yposition Zposition Xrotation Yrotation Zrotation
									JOINT mixamorig:LeftHandThumb2
									{
										OFFSET 3.217812 -1.872070 1.916482
										CHANNELS 6 Xposition Yposition Zposition Xrotation Yrotation Zrotation
										JOINT mixamorig:LeftHandThumb3
										{
											OFFSET 2.656029 -1.528778 1.514513
											CHANNELS 6 Xposition Yposition Zposition Xrotation Yrotation Zrotation
											JOINT mixamorig:LeftHandThumb4
											{
												OFFSET 2.020889 -1.154053 1.115139
												CHANNELS 6 Xposition Yposition Zposition Xrotation Yrotation Zrotation
												End Site
												{
													OFFSET 190.885437 -115.081749 130.048782
												}
											}
										}
									}
								}
								JOINT mixamorig:LeftHandIndex1
								{
									OFFSET 9.109314 -0.518021 2.259871
									CHANNELS 6 Xposition Yposition Zposition Xrotation Yrotation Zrotation
									JOINT mixamorig:LeftHandIndex2
									{
										OFFSET 3.699989 0.000000 -0.000322
										CHANNELS 6 Xposition Yposition Zposition Xrotation Yrotation Zrotation
										JOINT mixamorig:LeftHandIndex3
										{
											OFFSET 2.850006 0.000000 0.000352
											CHANNELS 6 Xposition Yposition Zposition Xrotation Yrotation Zrotation
											JOINT mixamorig:LeftHandIndex4
											{
												OFFSET 2.774864 -0.000031 -0.000027
												CHANNELS 6 Xposition Yposition Zposition Xrotation Yrotation Zrotation
												End Site
												{
													OFFSET 277.486267 0.000000 -0.009857
												}
											}
										}
									}
								}
								JOINT mixamorig:LeftHandMiddle1
								{
									OFFSET 9.533394 0.000061 0.000044
									CHANNELS 6 Xposition Yposition Zposition Xrotation Yrotation Zrotation
									JOINT mixamorig:LeftHandMiddle2
									{
										OFFSET 3.699989 -0.000015 -0.000231
										CHANNELS 6 Xposition Yposition Zposition Xrotation Yrotation Zrotation
										JOINT mixamorig:LeftHandMiddle3
										{
											OFFSET 2.949997 -0.000015 -0.000059
											CHANNELS 6 Xposition Yposition Zposition Xrotation Yrotation Zrotation
											JOINT mixamorig:LeftHandMiddle4
											{
												OFFSET 2.952896 0.000031 0.000063
												CHANNELS 6 Xposition Yposition Zposition Xrotation Yrotation Zrotation
												End Site
												{
													OFFSET 295.289337 0.000000 0.022810
												}
											}
										}
									}
								}
								JOINT mixamorig:LeftHandRing1
								{
									OFFSET 9.104523 -0.042999 -1.865074
									CHANNELS 6 Xposition Yposition Zposition Xrotation Yrotation Zrotation
									JOINT mixamorig:LeftHandRing2
									{
										OFFSET 3.150009 -0.000031 0.000043
										CHANNELS 6 Xposition Yposition Zposition Xrotation Yrotation Zrotation
										JOINT mixamorig:LeftHandRing3
										{
											OFFSET 2.949982 -0.000015 0.000040
											CHANNELS 6 Xposition Yposition Zposition Xrotation Yrotation Zrotation
											JOINT mixamorig:LeftHandRing4
											{
												OFFSET 2.644348 0.000000 0.000057
												CHANNELS 6 Xposition Yposition Zposition Xrotation Yrotation Zrotation
												End Site
												{
													OFFSET 264.434631 0.000000 0.012105
												}
											}
										}
									}
								}
								JOINT mixamorig:LeftHandPinky1
								{
									OFFSET 8.077789 -0.486847 -3.806259
									CHANNELS 6 Xposition Yposition Zposition Xrotation Yrotation Zrotation
									JOINT mixamorig:LeftHandPinky2
									{
										OFFSET 3.599953 0.000031 0.014727
										CHANNELS 6 Xposition Yposition Zposition Xrotation Yrotation Zrotation
										JOINT mixamorig:LeftHandPinky3
										{
											OFFSET 2.100021 0.000015 0.007705
											CHANNELS 6 Xposition Yposition Zposition Xrotation Yrotation Zrotation
											JOINT mixamorig:LeftHandPinky4
											{
												OFFSET 2.125504 0.000031 0.007517
												CHANNELS 6 Xposition Yposition Zposition Xrotation Yrotation Zrotation
												End Site
												{
													OFFSET 212.550781 0.000000 0.625752
												}
											}
										}
									}
								}
							}
						}
					}
				}
			}
		}
	}
	JOINT mixamorig:RightUpLeg
	{
		OFFSET -8.207787 -6.751648 -1.599560
		CHANNELS 6 Xposition Yposition Zposition Xrotation Yrotation Zrotation
		JOINT mixamorig:RightLeg
		{
			OFFSET -0.000002 -44.370117 0.345942
			CHANNELS 6 Xposition Yposition Zposition Xrotation Yrotation Zrotation
			JOINT mixamorig:RightFoot
			{
				OFFSET 0.000003 -44.423679 -3.043532
				CHANNELS 6 Xposition Yposition Zposition Xrotation Yrotation Zrotation
				JOINT mixamorig:RightToeBase
				{
					OFFSET -0.000002 -8.728671 10.710558
					CHANNELS 6 Xposition Yposition Zposition Xrotation Yrotation Zrotation
					JOINT mixamorig:RightToe_End
					{
						OFFSET -0.000001 -0.000679 9.278119
						CHANNELS 6 Xposition Yposition Zposition Xrotation Yrotation Zrotation
						End Site
						{
							OFFSET 0.000000 -0.067690 927.812134
						}
					}
				}
			}
		}
	}
	JOINT mixamorig:LeftUpLeg
	{
		OFFSET 8.207793 -6.751686 -1.599556
		CHANNELS 6 Xposition Yposition Zposition Xrotation Yrotation Zrotation
		JOINT mixamorig:LeftLeg
		{
			OFFSET -0.000004 -44.370014 0.346954
			CHANNELS 6 Xposition Yposition Zposition Xrotation Yrotation Zrotation
			JOINT mixamorig:LeftFoot
			{
				OFFSET -0.000001 -44.423672 -3.044401
				CHANNELS 6 Xposition Yposition Zposition Xrotation Yrotation Zrotation
				JOINT mixamorig:LeftToeBase
				{
					OFFSET -0.000002 -8.728669 10.710558
					CHANNELS 6 Xposition Yposition Zposition Xrotation Yrotation Zrotation
					JOINT mixamorig:LeftToe_End
					{
						OFFSET -0.000003 -0.000679 9.278133
						CHANNELS 6 Xposition Yposition Zposition Xrotation Yrotation Zrotation
						End Site
						{
							OFFSET 0.000000 -0.068021 927.813477
						}
					}
				}
			}
		}
	}
}
MOTION
Frames: 3
Frame Time: 0.033333
0.000006 104.270477 1.554256 0.000010 0.000003 -0.000113 -0.000005 10.181587 0.131522 0.000001 -0.000003 0.000084 -0.000000 9.893967 -1.470711 0.000001 0.000000 -0.000000 -0.000000 9.220802 -1.370642 0.000000 -0.000000 -0.000000 0.000001 16.740433 -2.049030 0.000000 -0.000000 -0.000000 0.000000 9.617859 1.685014 0.000000 0.000000 0.000000 0.000002 22.037384 7.501101 0.000000 -0.000000 0.000000 -4.569968 11.014880 -2.160881 0.000008 0.000001 -0.000038 -10.592871 -0.524680 -2.232004 74.396026 9.089899 -6.905264 -27.841522 0.000007 0.000558 -51.684844 119.385833 79.290280 -28.328814 0.000005 0.000025 -0.000321 -0.000045 0.000007 -2.464438 -1.573734 2.682309 -50.124122 -169.131166 -16.062780 -3.215268 -1.872607 1.924656 154.648433 30.783895 -1.263386 -2.654964 -1.527875 1.513092 142.427271 27.623554 -40.641190 -2.018823 -1.151973 1.108080 -0.000002 -0.000005 0.000000 -9.108406 -0.517560 2.260116 100.988363 15.813532 -19.178638 -3.700059 0.000319 0.001524 97.282603 13.158105 -14.901046 -2.850087 0.000379 -0.000258 97.939496 9.981776 -11.460163 -2.772172 -0.000016 -0.000021 -0.000000 0.000000 0.000000 -9.532604 0.000283 0.000244 96.207545 14.344017 -16.124277 -3.700075 0.000329 0.003986 95.824822 11.277858 -12.374130 -2.950053 0.000337 -0.001817 97.205237 10.213028 -11.568789 -2.946619 0.000001 -0.000151 -0.000002 -0.000000 0.000001 -9.103719 -0.042753 -1.864887 94.658567 16.439412 -17.764007 -3.379335 0.000322 -0.000785 98.042168 10.709901 -12.338049 -2.889758 0.000355 0.000676 101.515421 7.806555 -9.606427 -2.638813 -0.000028 0.000944 0.000002 0.000001 -0.000002 -8.076763 -0.486387 -3.806074 79.660667 18.145067 -15.044402 -3.600039 0.000268 -0.003532 85.532137 9.251641 -8.227383 -2.100001 0.000321 -0.005497 89.081772 5.005476 -4.712067 -2.115753 -0.000055 -0.003681 -0.000002 0.000004 -0.000003 4.570446 11.014691 -2.160851 -0.000018 0.000010 -0.000021 10.592358 -0.524531 -2.232264 71.156467 10.347269 -7.411735 27.841835 0.000128 -0.000231 106.911394 -62.724810 78.865496 28.328817 -0.000012 0.000018 0.000020 -0.000088 -0.000000 2.465878 -1.576092 2.681887 -51.968799 171.820430 22.718029 3.217806 -1.871750 1.916355 152.848992 -29.535688 8.512694 2.656097 -1.528613 1.514434 143.065033 -27.682285 35.543703 2.020884 -1.154095 1.115145 -0.000001 0.000007 0.000002 9.109359 -0.517879 2.259740 78.822514 -15.113938 12.432915 3.700053 0.000144 -0.000453 78.574544 -16.161662 13.265605 2.850067 0.000161 0.000217 77.715866 -13.845605 11.173200 2.774887 -0.000022 -0.000024 -0.000003 -0.000001 0.000000 9.533437 0.000198 -0.000089 78.342775 -12.267529 10.000804 3.700065 0.000141 -0.000366 82.993738 -14.888117 13.184079 2.950075 0.000146 -0.000184 83.031304 -19.114681 16.957236 2.952876 -0.000033 0.000066 0.000001 -0.000002 0.000002 9.104559 -0.042860 -1.865241 78.453896 -11.989096 9.800911 3.150053 0.000195 -0.000103 84.900187 -12.498335 11.441673 2.950017 0.000153 -0.000064 86.416093 -15.468481 14.542050 2.644324 0.000047 0.000058 0.000001 -0.000001 -0.000002 8.077816 -0.486743 -3.806396 70.108729 -14.606274 10.688138 3.599988 0.000170 0.014571 71.066623 -10.526204 7.884492 2.100034 0.000161 0.007538 73.175245 -10.720338 8.324497 2.125497 -0.000032 0.007516 0.000001 -0.000002 -0.000000 -8.207786 -6.751667 -1.599560 -0.077001 -0.000003 0.000080 -0.000002 -44.370110 0.345938 0.153719 -0.000000 -0.000000 0.000000 -44.423679 -3.043532 -0.076700 0.000000 -0.000002 -0.000006 -8.728667 10.710559 -0.000009 -0.000000 -0.000000 -0.000001 -0.000679 9.278123 0.000000 -0.000000 -0.000000 8.207792 -6.751710 -1.599556 -0.074518 -0.000003 0.000081 -0.000002 -44.370014 0.346960 0.148822 0.000002 0.000000 -0.000001 -44.423664 -3.044403 -0.074314 0.000000 -0.000002 -0.000004 -8.728671 10.710558 0.000007 -0.000000 -0.000000 0.000000 -0.000680 9.278137 -0.000000 0.000000 -0.000001 
0.000006 104.270477 1.554256 0.000010 0.000003 -0.000113 -0.000005 10.181587 0.131522 0.000001 -0.000003 0.000084 -0.000000 9.893967 -1.470711 0.000001 0.000000 -0.000000 -0.000000 9.220802 -1.370642 0.000000 -0.000000 -0.000000 0.000001 16.740433 -2.049030 0.000000 -0.000000 -0.000000 0.000000 9.617859 1.685014 0.000000 0.000000 0.000000 0.000002 22.037384 7.501101 0.000000 -0.000000 0.000000 -4.569968 11.014880 -2.160881 0.000008 0.000001 -0.000038 -10.592873 -0.524683 -2.232006 73.924879 9.948661 -7.494808 -27.841515 0.000009 0.000556 -51.605610 118.427953 78.118212 -28.328827 0.000006 0.000031 -0.000320 -0.000043 0.000006 -2.464482 -1.573642 2.682241 -56.060656 -180.512775 -40.281153 -3.215276 -1.872618 1.924661 152.145223 30.790377 0.326614 -2.654960 -1.527880 1.513077 143.708054 27.650018 -36.029979 -2.018830 -1.151999 1.108082 0.000001 0.000003 0.000004 -9.108388 -0.517558 2.260119 100.028462 14.790732 -17.649450 -3.700065 0.000313 0.001515 97.049769 12.961110 -14.618820 -2.850101 0.000367 -0.000252 96.588970 11.030026 -12.366513 -2.772178 -0.000014 -0.000016 0.000001 -0.000000 -0.000000 -9.532602 0.000294 0.000236 94.830729 15.532740 -17.035638 -3.700066 0.000335 0.003969 95.446143 12.094033 -13.187656 -2.950044 0.000340 -0.001795 97.336213 11.324132 -12.855263 -2.946614 0.000001 -0.000154 -0.000003 0.000002 -0.000001 -9.103720 -0.042758 -1.864858 93.421750 18.260378 -19.316371 -3.379352 0.000339 -0.000795 96.623961 10.210819 -11.476902 -2.889754 0.000341 0.000653 101.427537 7.541944 -9.268531 -2.638806 -0.000001 0.000946 0.000001 -0.000002 0.000005 -8.076765 -0.486396 -3.806034 81.918120 20.485583 -17.692859 -3.600037 0.000264 -0.003532 84.522573 9.875606 -8.648611 -2.100007 0.000325 -0.005510 87.067024 5.037210 -4.579357 -2.115766 -0.000042 -0.003668 -0.000002 0.000002 -0.000004 4.570446 11.014691 -2.160851 -0.000018 0.000010 -0.000021 10.592352 -0.524561 -2.232259 71.547598 18.279755 -13.224862 27.841848 0.000131 -0.000224 108.019626 -63.467798 80.829135 28.328833 -0.000028 0.000021 0.000019 -0.000088 -0.000000 2.465993 -1.576162 2.681913 -39.478244 166.490287 -12.430595 3.217861 -1.871794 1.916380 161.304179 -26.068226 25.503318 2.656106 -1.528650 1.514468 143.856980 -26.391414 50.998413 2.020895 -1.154084 1.115147 0.000001 0.000002 0.000001 9.109365 -0.517883 2.259748 80.915776 -18.019531 15.390902 3.700041 0.000131 -0.000465 78.173380 -12.610456 10.271220 2.850022 0.000184 0.000188 77.669988 -10.658390 8.587964 2.774884 -0.000042 -0.000020 -0.000002 0.000001 0.000001 9.533440 0.000191 -0.000103 80.583911 -15.730503 13.352641 3.700042 0.000151 -0.000398 82.784741 -10.711801 9.445003 2.950037 0.000168 -0.000219 82.926078 -11.912507 10.536508 2.952860 -0.000027 0.000067 -0.000001 -0.000001 0.000002 9.104568 -0.042861 -1.865220 80.112976 -15.534886 13.086519 3.150040 0.000183 -0.000092 83.676183 -11.091332 9.937837 2.950005 0.000180 -0.000077 84.982006 -10.822878 9.920551 2.644328 0.000032 0.000062 -0.000000 0.000002 -0.000001 8.077837 -0.486735 -3.806380 72.338574 -17.767641 13.480908 3.600000 0.000170 0.014585 72.799414 -14.609780 11.184430 2.100048 0.000168 0.007542 75.339254 -11.567312 9.316245 2.125504 -0.000014 0.007516 0.000000 0.000002 -0.000000 -8.207786 -6.751667 -1.599560 -0.077001 -0.000003 0.000080 -0.000002 -44.370110 0.345938 0.153719 -0.000000 -0.000000 0.000000 -44.423679 -3.043532 -0.076700 0.000000 -0.000002 -0.000006 -8.728667 10.710559 -0.000009 -0.000000 -0.000000 -0.000001 -0.000679 9.278123 0.000000 -0.000000 -0.000000 8.207792 -6.751710 -1.599556 -0.074518 -0.000003 0.000081 -0.000002 -44.370014 0.346960 0.148822 0.000002 0.000000 -0.000001 -44.423664 -3.044403 -0.074314 0.000000 -0.000002 -0.000004 -8.728671 10.710558 0.000007 -0.000000 -0.000000 0.000000 -0.000680 9.278137 -0.000000 0.000000 -0.000001 
0.000006 104.270477 1.554256 0.000010 0.000003 -0.000113 -0.000005 10.181587 0.131522 0.000001 -0.000003 0.000084 -0.000000 9.893967 -1.470711 0.000001 0.000000 -0.000000 -0.000000 9.220802 -1.370642 0.000000 -0.000000 -0.000000 0.000001 16.740433 -2.049030 0.000000 -0.000000 -0.000000 0.000000 9.617859 1.685014 0.000000 0.000000 0.000000 0.000002 22.037384 7.501101 0.000000 -0.000000 0.000000 -4.569968 11.014880 -2.160881 0.000008 0.000001 -0.000038 -10.592880 -0.524748 -2.231939 73.615314 24.152775 -18.191731 -27.841515 0.000011 0.000553 -50.659974 113.976835 72.150710 -28.328817 0.000005 0.000035 -0.000323 -0.000045 0.000009 -2.464502 -1.573648 2.682265 -55.723023 -178.934291 -37.783107 -3.215293 -1.872580 1.924651 152.206435 30.813644 0.445328 -2.654958 -1.527885 1.513069 143.552545 27.662801 -36.276945 -2.018834 -1.152001 1.108065 -0.000002 0.000001 0.000002 -9.108389 -0.517547 2.260132 100.049738 14.703061 -17.552106 -3.700066 0.000318 0.001509 97.775722 12.677211 -14.480780 -2.850066 0.000375 -0.000264 97.325039 10.707816 -12.161014 -2.772156 -0.000015 -0.000016 0.000002 -0.000001 0.000000 -9.532595 0.000275 0.000252 95.635482 15.614116 -17.363610 -3.700066 0.000331 0.003991 95.885863 12.045058 -13.234741 -2.950063 0.000343 -0.001797 97.396394 11.331524 -12.877162 -2.946631 0.000002 -0.000160 -0.000000 0.000000 -0.000001 -9.103716 -0.042762 -1.864845 94.939438 17.996112 -19.539452 -3.379347 0.000318 -0.000791 96.589919 10.378246 -11.657607 -2.889742 0.000347 0.000676 101.129748 7.856562 -9.601707 -2.638810 -0.000015 0.000940 0.000000 0.000000 0.000000 -8.076771 -0.486398 -3.806037 81.562117 20.597774 -17.681241 -3.600059 0.000263 -0.003546 84.371401 10.629971 -9.307320 -2.100028 0.000315 -0.005505 86.893318 5.747997 -5.236774 -2.115788 -0.000039 -0.003674 -0.000003 0.000002 -0.000005 4.570446 11.014691 -2.160851 -0.000018 0.000010 -0.000021 10.592363 -0.524523 -2.232281 70.303376 6.100045 -4.297383 27.841846 0.000089 -0.000199 109.394099 -67.581471 86.763825 28.328812 -0.000029 0.000023 0.000021 -0.000088 -0.000001 2.465990 -1.576134 2.681904 -41.262283 167.188360 -7.996702 3.217872 -1.871845 1.916396 158.195077 -24.531253 34.667660 2.656101 -1.528629 1.514474 142.028880 -26.997231 50.527707 2.020887 -1.154057 1.115147 0.000000 0.000007 0.000004 9.109380 -0.517876 2.259737 82.416642 -18.534888 16.252597 3.700033 0.000138 -0.000468 78.552209 -13.015141 10.672815 2.850031 0.000179 0.000219 77.594658 -11.014199 8.863418 2.774884 -0.000017 -0.000032 -0.000000 -0.000006 -0.000002 9.533465 0.000206 -0.000089 80.920905 -16.772358 14.325091 3.700050 0.000160 -0.000374 82.823086 -11.231407 9.910550 2.950047 0.000168 -0.000214 83.283085 -11.528903 10.260626 2.952878 -0.000013 0.000068 -0.000001 -0.000000 -0.000002 9.104574 -0.042850 -1.865222 80.673407 -16.515739 14.053311 3.150045 0.000185 -0.000111 83.776245 -11.484769 10.308763 2.950015 0.000172 -0.000086 85.200326 -10.251997 9.432716 2.644337 0.000030 0.000062 -0.000001 -0.000003 -0.000002 8.077847 -0.486733 -3.806410 74.260344 -18.512393 14.529061 3.600001 0.000154 0.014574 73.493437 -15.312511 11.857493 2.100051 0.000154 0.007529 75.963991 -11.464471 9.339945 2.125492 -0.000016 0.007510 -0.000005 0.000005 0.000001 -8.207786 -6.751667 -1.599560 -0.077001 -0.000003 0.000080 -0.000002 -44.370110 0.345938 0.153719 -0.000000 -0.000000 0.000000 -44.423679 -3.043532 -0.076700 0.000000 -0.000002 -0.000006 -8.728667 10.710559 -0.000009 -0.000000 -0.000000 -0.000001 -0.000679 9.278123 0.000000 -0.000000 -0.000000 8.207792 -6.751710 -1.599556 -0.074518 -0.000003 0.000081 -0.000002 -44.370014 0.346960 0.148822 0.000002 0.000000 -0.000001 -44.423664 -3.044403 -0.074314 0.000000 -0.000002 -0.000004 -8.728671 10.710558 0.000007 -0.000000 -0.000000 0.000000 -0.000680 9.278137 -0.000000 0.000000 -0.000001 
